<mxfile host="app.diagrams.net" modified="2024-08-05T06:54:10.395Z" agent="Mozilla/5.0 (Windows NT 10.0; Win64; x64) AppleWebKit/537.36 (KHTML, like Gecko) Chrome/126.0.0.0 Safari/537.36" version="24.6.0" etag="7qQwEhRN3TNH0-fmdOpC" type="github">
  <diagram name="第 1 页" id="vZNRNvNg1LICzzsJC16B">
    <mxGraphModel>
      <root>
        <mxCell id="0" />
        <mxCell id="1" parent="0" />
      </root>
    </mxGraphModel>
  </diagram>
</mxfile>
